<?xml version="1.0" encoding="utf-8"?>
<!-- Generator: Adobe Illustrator 16.0.0, SVG Export Plug-In . SVG Version: 6.00 Build 0)  -->
<!DOCTYPE svg PUBLIC "-//W3C//DTD SVG 1.1//EN" "http://www.w3.org/Graphics/SVG/1.1/DTD/svg11.dtd">
<svg version="1.1" id="Layer_1" xmlns="http://www.w3.org/2000/svg" xmlns:xlink="http://www.w3.org/1999/xlink" x="0px" y="0px"
	 width="536.13px" height="620.833px" viewBox="0 0 536.13 620.833" enable-background="new 0 0 536.13 620.833"
	 xml:space="preserve">
<g>
	<path fill="#DB3F37" d="M531.366,249.947c-1.223-9.266-12.398-35.944-39.699-71.66c-16.236-21.236-58.617-62.823-103.68-82.636
		C330.592,70.413,270.342,69.33,270.342,69.33s-79.795-0.712-149.264,40.95c-13.235,9.504-27.207,18.279-40.44,29.98
		c-54.43,48.113-73.53,100.915-73.53,106.767c0,5.847-5.147,96.52-2.207,103.103c2.943,6.582,11.033,23.4,20.588,27.053
		c8.002,3.062,112.297,31.219,150.404,41.174c0.465-2.856,2.328-5.445,5.953-6.46c22.18-6.203,45.146-3.685,67.87-2.663
		c5.628-0.172,11.253-0.215,16.858-0.135c7.478,0.109,14.983,0.404,22.479,0.943c21.589,0.73,43.084,2.534,64.359,6.854
		c2.698,0.548,4.439,1.984,5.369,3.799l91.704-23.766c10.29-2.925,56.616-13.163,64.704-19.015
		c8.091-5.852,15.442-14.621,16.176-24.13C532.1,344.282,532.596,259.212,531.366,249.947z"/>
	<path fill="#F1F2F2" d="M379.569,111.383c41.708,17.893,80.934,55.447,95.957,74.623c25.273,32.263,36.751,64.716,36.751,64.716
		s0.677,85.198,0,93.779c-0.686,8.586-7.494,16.511-14.975,21.79c-7.485,5.286-50.358,14.528-59.889,17.175l-96.638,24.436
		c0,0-138.152-0.666-144.959-1.986c-6.805-1.318-151.761-40.279-151.761-40.279C34.529,360.351,25,341.202,25,341.202l2.042-93.119
		c0,0,17.677-52.968,68.051-96.416c12.251-10.566,25.181-18.489,37.433-27.077c64.303-37.621,138.151-36.98,138.151-36.98
		S326.447,88.593,379.569,111.383z"/>
	<path fill="#DB3F37" d="M167.252,218.728V373.22h203.238V218.728H167.252z M351.075,357.769H185.747v-121.02h165.328V357.769z"/>
	<g>
		<rect x="140.576" y="182.166" fill="#231F20" width="224.01" height="115.525"/>
		<g>
			<path fill="#BF4B13" d="M264.935,132.437c26.984,0.771,54.117,1.288,81.109,0.619c5.107-0.126,10.348-0.28,15.629-0.294
				c11.492-44.054-7.469-92.016-48.982-115.455C263.232-10.619,200.498,6.838,172.574,56.298
				C159.98,78.6,156.619,103.6,161.255,126.892C195.783,129.239,230.314,131.448,264.935,132.437z"/>
			<path fill="#231F20" d="M319.849,137.364c-0.002,0-0.003,0-0.005,0c-19.959,0-39.89-0.497-55.023-0.929
				c-35.25-1.006-70.625-3.294-103.837-5.552l-3.054-0.208l-0.598-3.002c-4.985-25.04-0.809-51.087,11.758-73.341
				C188.011,20.818,223.698,0,262.223,0c18.286,0,36.418,4.779,52.435,13.822c42.173,23.812,63.098,73.136,50.886,119.948
				l-0.777,2.982l-3.082,0.008c-4.467,0.012-8.957,0.126-13.3,0.237l-2.241,0.056C337.734,137.263,329.132,137.364,319.849,137.364z
				 M164.629,123.112c32.229,2.182,66.407,4.355,100.42,5.327c15.08,0.431,34.937,0.925,54.795,0.925c0.002,0,0.004,0,0.005,0
				c9.217,0,17.753-0.101,26.097-0.307l2.235-0.057c3.38-0.086,6.849-0.174,10.347-0.216c9.677-42.406-9.679-86.47-47.804-107.995
				C295.906,12.422,279.134,8,262.223,8c-35.645,0-68.662,19.26-86.166,50.265C164.932,77.966,160.915,100.878,164.629,123.112z"/>
		</g>
		<path fill="#231F20" d="M169.179,76.357c6.801-7.021,18.082-12.766,31.773-16.184c15.533-3.882,32.014-4.318,43.002-1.142
			c13.879,4.015,23.02,12.919,27.766,18.744c-4.963,2.608-9.949,5.318-14.848,8.072c-27.639,15.51-50.154,30.817-58.551,36.675
			c-3.078,2.147-5.857,4.239-8.391,6.262c4.818,0.305,9.635,0.6,14.453,0.886c11.365-7.896,39.494-26.782,72.314-43.977
			c1.971,4.615,5.043,13.885,3.775,24.633c-1.297,7.47-3.326,14.971-6.025,22.368c3.354,0.086,6.707,0.167,10.063,0.241
			c2.648-7.46,4.391-14.564,5.189-21.212c2.297-13.454-1.953-24.905-4.568-30.354c4.965-2.491,9.918-4.874,14.775-7.102
			c0.711,1.349,1.381,2.65,2.014,3.903c8.754,17.416,14.395,31.282,17.32,50.63c0.234,1.551,0.428,3.062,0.6,4.551
			c3.131,0,6.26-0.012,9.389-0.037c-0.213-1.952-0.461-3.92-0.762-5.912c-3.102-20.484-9.266-35.627-18.213-53.423
			c-0.57-1.132-1.174-2.302-1.807-3.507c4.143-1.785,8.248-3.461,12.311-5.029c6.146,10.22,13.717,20.726,24.393,33.856
			c5.623,6.922,9.984,13.405,12.963,19.268l0.365,0.721c0.475,0.927,0.891,1.726,1.154,2.508c0.131,0.402,0.236,0.761,0.326,1.115
			l3.096-0.124c0.717-3.925,1.205-7.947,1.451-11.96l0.078-1.286l-0.953-0.261c-2.977-5.014-6.76-10.35-11.242-15.865
			c-9.836-12.1-16.893-21.798-22.645-31.164c9.811-3.15,16.453-4.09,20.354-4.31c0.021-0.001,0.105,0.007,0.225,0.036l3.52,0.863
			l-1.76-3.172l-0.402-0.742c-1.023-1.826-2.117-3.63-3.34-5.524l-0.984-1.515l-1.238,1.051c-6.174,0.722-13.289,2.427-21.158,5.067
			c-3.221-5.907-6.213-12.169-9.117-19.095c-2.301-5.49-4.277-12.114-5.578-18.69l0.672-1.21l-1.461-0.746
			c-2.4-1.232-4.834-2.359-7.23-3.36l-3.648-1.519l1.582,3.618c0.045,0.097,0.08,0.186,0.092,0.239
			c1.258,8.492,3.795,17.701,6.965,25.275c2.857,6.806,5.766,12.947,8.863,18.729c-3.988,1.559-8.078,3.243-12.197,5.028
			c-8.809-15.088-18.637-27.594-29.232-37.181c-10.584-9.578-21.641-15.941-32.875-18.917l-0.357-0.821l-1.287,0.3
			c-5.211,1.21-10.346,2.836-15.256,4.842l0.678,3.051c0.572-0.032,1.053-0.029,1.434-0.028
			c14.025,0.095,27.953,6.315,41.402,18.493c9.684,8.764,18.736,20.227,26.928,34.094c-5.006,2.306-10.084,4.753-15.143,7.303
			c-5.289-6.979-16.143-18.276-33.643-23.341c-12.486-3.611-30.822-3.208-47.857,1.045c-6.012,1.501-14.938,4.279-23.309,8.978
			c-1.127,0.636-2.24,1.298-3.328,1.991l-0.984-0.582l-0.729,1.625c-1.822,4.079-3.396,8.341-4.678,12.666l2.762,1.433
			C168.732,76.843,169.013,76.532,169.179,76.357z"/>
		<g>
			<path fill="#D8583A" d="M108.353,120.03v14.862c0,5.341,1.996,8.83,3.973,10.974v54.3c-0.602,0.963-1.199,2.053-1.818,3.317
				c-1.43,2.919-2.154,6.053-2.154,9.313v37.113l30.543,15.442l5.77,38.564c7.426-4.235,19.9-52.987,27.666-56.524l5.689-2.593
				v-12.64c0-4.435,5.92-1.33,4.322-3.047l-4.322,3.047l11.076,7.701l12.334-3.445c11.643-3.253,23.092-5.773,34.998-7.706
				l1.309-0.181c2.65-0.359,5.152-1.658,7.434-3.866c0.725-0.7,1.5-1.612,2.182-2.756c5.281,3.52,11.99,5.238,20.512,5.238
				l0.236-0.001c8.852-0.032,15.697-1.861,20.928-5.588c0.414-0.296,0.838-0.625,1.264-0.975c0.23,0.439,0.477,0.873,0.75,1.293
				c3.033,4.659,8.162,7.332,14.074,7.332c1.213,0,2.43-0.127,3.639-0.351c1.4,0.887,2.977,1.521,4.697,1.856
				c5.594,1.086,8.311,1.701,13.84,3.129c1.004,0.26,2.025,0.392,3.031,0.392c3.973,0,7.594-2.051,9.693-5.495
				c0.648-1.063,1.406-2.589,1.896-4.441c-0.01,0.271-0.021,0.54-0.021,0.819v12.903l6.41,2.32c2.293,0.83,3.42,1.255,5.746,2.167
				c7.27,2.848,14.498,6.115,21.488,9.705c2.428,1.248,3.596,1.87,5.957,3.171c2.021,1.115,4.178,1.681,6.406,1.681
				c0.504,0,1.014-0.03,1.516-0.09c2.436-0.29,4.58-1.328,6.221-2.879l29.477-26.416v0c2.762-2.471,4.455-6.068,4.455-10.12v-24.506
				l-6.055-3.454c-2.941-1.678-4.494-2.535-7.551-4.169c-0.051-0.027-0.1-0.053-0.148-0.079c3.971-2.203,6.611-6.51,6.611-11.571
				v-10.02c0-0.171-0.002-0.342-0.008-0.513l7.15,4.078v-37.191c0-2.871-0.863-5.738-2.645-8.771c-1.762-3-4.094-5.318-6.932-6.889
				c-13.857-7.668-28.375-14.301-43.176-19.753v-0.015l-0.418-0.142c-0.434-0.159-0.863-0.327-1.299-0.484l-16.08-5.816v0.561
				c-5.281-1.619-10.004-2.867-16.902-4.531l-1.121-0.271v-0.156l-4.219-0.861l-9.475-2.285v0.365
				c-8.1-1.587-13.477-2.387-22.742-3.451L291.191,76.1v4.364c-6.258-4.056-14.021-6.117-23.156-6.117l-0.223,0
				c-10.805,0.04-19.793,2.965-26.717,8.693c-7.373,6.1-11.271,14.641-11.271,24.698v2.5l-9.412-31.194l-14.42,2.97
				c-10.906,2.247-16.48,3.658-27.113,6.866l-8.535,2.575v16.806c0,5.659,2.295,9.312,4.221,11.381
				c0.016,0.018,0.033,0.037,0.051,0.055v13.467L156.666,95.91"/>
			<path fill="#231F20" d="M112.869,264.994l-0.516-25.591v-26.606c0-2.646,0.588-5.188,1.746-7.554
				c0.561-1.143,1.09-2.11,1.619-2.957l0.607-0.973v-57.01l-1.059-1.148c-1.934-2.098-2.914-4.878-2.914-8.263V120.03h-8v14.862
				c0,5.773,1.973,9.813,3.973,12.425v51.742c-0.468,0.812-0.934,1.691-1.41,2.664c-1.7,3.471-2.563,7.197-2.563,11.073v30.494
				l20.69,16.262C125.684,256.884,110.417,266.202,112.869,264.994z"/>
			<path fill="#231F20" d="M426.425,170.136l7.143,4.074v-44.078c0-3.604-1.045-7.136-3.195-10.796
				c-2.13-3.626-4.971-6.44-8.444-8.364c-13.169-7.287-26.987-13.682-41.112-19.029v-0.107l-2.717-0.92l-0.878-0.316
				c-0.254-0.096-0.508-0.191-0.762-0.283l-21.44-6.837c-2.954-0.829-6.096-1.918-10.023-2.879l-21.693-4.341
				c-5.722-1.032-10.682-1.726-18.286-2.599l-17.825-2.045v2.25c-5.618-2.337-12.035-3.518-19.165-3.518l-0.229,0
				c-11.754,0.043-21.596,3.277-29.252,9.611c-4.361,3.608-7.645,7.963-9.783,12.916l-5.577-18.485l-18,3.708
				c-11.045,2.275-16.691,3.705-27.462,6.954l-11.38,3.434v18.296l-6.074-12.607l-7.207,3.472l25.553,53.037v-32.61l-1.123-1.155
				c-1.437-1.543-3.148-4.297-3.148-8.655V94.427l5.69-1.717c10.497-3.167,16-4.56,26.765-6.778l10.84-2.232l16.186,53.643v-29.604
				c0-8.826,3.396-16.301,9.821-21.616c6.192-5.123,14.328-7.739,24.176-7.775l0.214,0c8.318,0,15.378,1.841,20.98,5.473
				l6.176,4.003v-7.238l8.913,1.023c9.377,1.076,14.617,1.871,22.429,3.402l4.77,0.935l9.876,2.235
				c7.172,1.729,11.689,2.94,16.668,4.467l5.173,1.586l9.797,3.272l2.617,0.966c14.655,5.399,28.995,11.959,42.621,19.5
				c2.202,1.219,4.025,3.041,5.42,5.416c1.409,2.398,2.094,4.605,2.094,6.745v30.305l-7.394-4.217l0.245,7.162
				c0.005,0.125,0.006,0.251,0.006,0.376v10.02c0,3.475-1.701,6.492-4.552,8.073l-6.403,3.669l6.606,3.435
				c3.031,1.621,4.563,2.467,7.455,4.117l4.036,2.302v22.183c0,2.802-1.108,5.338-3.125,7.142l-29.477,26.415l-0.078,0.072
				c-1.064,1.006-2.429,1.633-3.948,1.814c-1.877,0.225-3.771-0.16-5.516-1.122c-2.409-1.328-3.598-1.961-6.061-3.227
				c-7.124-3.659-14.478-6.98-21.854-9.871c-2.355-0.924-3.503-1.357-5.846-2.205l3.552-22.001c0,0-16.17,11.352-16.613,12.079
				c-1.723,2.823-5.03,4.16-8.31,3.313c-5.625-1.453-8.388-2.078-14.076-3.183c-1.201-0.233-2.318-0.674-3.32-1.309l-1.325-0.84
				l-1.543,0.285c-1.019,0.188-1.998,0.284-2.911,0.284c-4.532,0-8.44-2.01-10.72-5.511c-0.181-0.278-0.365-0.597-0.563-0.974
				l-2.284-4.35l-3.796,3.118c-0.354,0.291-0.707,0.566-1.047,0.809c-4.535,3.231-10.626,4.816-18.623,4.845l-0.22,0.001
				c-7.699,0-13.683-1.494-18.293-4.567l-3.502-2.334l-2.153,3.616c-0.423,0.709-0.936,1.357-1.527,1.929
				c-1.652,1.6-3.398,2.533-5.2,2.777l-1.4,0.195c-12.06,1.957-23.649,4.509-35.434,7.802l-9.419,2.631l-16.69-14.506l-0.225,21.539
				l-3.348,1.525c-6.039,2.751-9.676,4.534-14.423,7.142c1.42,0.742,2.744,1.874,3.38,3.241c0.505,1.086,1.012,2.169,1.288,3.325
				c4.181-2.271,7.606-3.938,13.072-6.427l8.03-3.66V235.94l5.237,8.586l15.249-4.259c11.495-3.212,22.801-5.701,34.471-7.597
				l1.297-0.179c3.517-0.476,6.773-2.144,9.675-4.952c0.144-0.138,0.283-0.279,0.422-0.421c5.364,2.705,11.784,4.026,19.51,4.026
				l0.234-0.001c8.604-0.031,15.553-1.662,21.152-4.976c3.851,4.503,9.493,7.038,15.849,7.038c0.932,0,1.894-0.063,2.874-0.186
				c1.47,0.753,3.044,1.296,4.699,1.617c5.497,1.068,8.167,1.672,13.601,3.075c4.017,1.039,8.214,0.456,11.602-1.479v4.591
				l9.049,3.275c2.262,0.819,3.37,1.237,5.648,2.13c7.128,2.793,14.234,6.002,21.118,9.538c2.379,1.223,3.528,1.835,5.854,3.117
				c2.62,1.445,5.426,2.178,8.339,2.178c0.663,0,1.333-0.04,1.988-0.118c3.216-0.383,6.138-1.732,8.453-3.904l29.438-26.382
				c3.679-3.291,5.788-8.065,5.788-13.101v-26.83l-8.072-4.605c-1.044-0.596-1.916-1.089-2.745-1.553
				c2.34-2.992,3.675-6.781,3.675-10.792V170.136z"/>
		</g>
		<path fill="#FFFFFF" d="M140.935,195.574c0.24,0.219,0.52,0.381,0.84,0.481c0.639,0.2,1.285,0.616,1.926,1.237
			c0.643,0.622,0.965,1.648,0.965,3.067c0,3.156,0,4.733,0,7.889c-9.891,4.505-14.764,6.994-24.313,12.439c0-3.156,0-4.734,0-7.891
			c0-1.418,0.309-2.764,0.932-4.037c0.623-1.269,1.238-2.373,1.869-3.177c0.365-0.464,0.684-0.921,0.879-1.365
			c0.193-0.44,0.293-1.119,0.293-2.039c0-20.333,0-40.666,0-60.998c0-0.05,0-0.075,0-0.126c0-0.833-0.1-1.365-0.293-1.591
			c-0.193-0.225-0.496-0.411-0.879-0.515c-0.604-0.166-1.246-0.515-1.869-1.081c-0.621-0.565-0.932-1.556-0.932-2.977
			c0-3.156,0-4.735,0-7.892c9.549-5.446,14.422-7.934,24.313-12.439c0,3.156,0,4.734,0,7.891c0,1.421-0.322,2.735-0.965,3.948
			c-0.645,1.216-1.35,2.231-1.926,3.023c-0.326,0.45-0.6,0.952-0.84,1.397c-0.24,0.449-0.359,1.088-0.359,1.922
			c0,0.05,0,0.077,0,0.128c0,20.332,0,40.665,0,60.997C140.576,194.787,140.697,195.355,140.935,195.574z"/>
		<path fill="#FFFFFF" d="M232.662,162.445c0,6.463,0,9.695,0,16.158c0,1.671-0.473,2.959-1.416,3.871
			c-0.947,0.915-1.764,1.417-2.449,1.509c-0.721,0.097-1.082,0.148-1.803,0.25c-15.18,2.459-29.838,5.686-44.65,9.823
			c0-3.207,0-4.81,0-8.016c0-1.835,0.229-3.303,0.689-4.402c0.459-1.096,1.115-2.027,1.947-2.642
			c0.395-0.292,0.795-0.69,1.131-1.206c0.334-0.513,0.504-1.061,0.504-1.646c0-19.999,0-39.997,0-59.995c0-0.301,0-0.452,0-0.753
			c0-0.833-0.105-1.389-0.314-1.663c-0.209-0.272-0.531-0.53-0.945-0.73c-0.648-0.314-1.338-0.818-2.008-1.538
			c-0.668-0.718-1.004-1.785-1.004-3.206c0-3.156,0-4.736,0-7.892c10.33-3.117,15.557-4.436,26.068-6.602c0,3.156,0,4.734,0,7.891
			c0,1.421-0.342,2.658-1.021,3.718c-0.68,1.063-1.377,1.915-2.039,2.563c-0.426,0.417-0.744,0.832-0.955,1.211
			c-0.213,0.382-0.316,0.989-0.316,1.823c0,20.292,0,40.582,0,60.873c0,1.421,0.551,2.005,1.656,1.767
			c3.77-0.813,5.66-1.188,9.451-1.878c0.596-0.107,1.172-0.419,1.729-0.936c0.555-0.515,0.984-1.008,1.217-1.464
			c0.441-0.863,1.154-2.033,2.18-3.372c1.027-1.337,2.48-2.157,4.365-2.438C227.867,163.051,229.464,162.834,232.662,162.445z"/>
		<path fill="#FFFFFF" d="M267.857,182.165c-8.039,0.03-14.389-1.373-19.047-4.524c-4.658-3.151-6.986-7.86-6.986-14.291
			c0-18.537,0-37.073,0-55.611c0-6.429,2.305-11.633,6.922-15.452c4.613-3.818,10.984-5.91,19.111-5.939
			c8.211-0.03,14.539,2.02,18.984,5.792c4.445,3.771,6.664,8.948,6.664,15.375c0,18.537,0.004,37.075,0,55.612
			c0,6.431-2.24,11.168-6.729,14.365C282.289,180.691,275.98,182.135,267.857,182.165z M275.507,108.085
			c0-1.502-0.305-2.722-0.908-3.651c-0.604-0.928-1.32-1.653-2.139-2.162c-0.822-0.51-1.668-0.873-2.529-1.083
			c-0.863-0.211-1.555-0.313-2.074-0.312s-1.213,0.088-2.074,0.265c-0.863,0.177-1.73,0.504-2.594,0.979
			c-0.863,0.476-1.619,1.142-2.268,1.993c-0.646,0.853-0.973,1.991-0.973,3.41c0,17.869,0,35.737,0,53.606
			c0,1.252,0.26,2.289,0.777,3.109c0.52,0.822,1.166,1.472,1.943,1.957c0.779,0.485,1.643,0.847,2.594,1.085
			c0.951,0.239,1.816,0.357,2.594,0.354c1.814-0.007,3.543-0.498,5.186-1.477c1.641-0.98,2.465-2.712,2.465-5.217
			C275.507,143.322,275.507,125.704,275.507,108.085z"/>
		<path fill="#FFFFFF" d="M364.816,103.32c0,3.207,0,4.809,0,8.015c0,1.42-0.309,2.483-0.932,3.194
			c-0.623,0.712-1.334,1.137-1.932,1.368c-0.398,0.154-0.77,0.46-1.061,0.783c-0.293,0.324-0.521,0.793-0.686,1.407
			c-2.088,11.299-4.176,22.599-6.262,33.898c-0.752,4.287-1.508,8.472-2.262,12.556c-0.754,4.084-1.428,7.733-2.016,10.951
			c-0.588,3.217-1.07,5.823-1.449,7.806c-0.377,1.983-0.559,3.025-0.566,3.1c-0.115,1.325-0.654,2.6-1.199,3.497
			c-0.549,0.898-1.367,1.201-2.463,0.918c-7.082-1.829-10.645-2.634-17.801-4.025c-2.217-0.431-3.629-2.059-4.225-4.921
			c-4.77-25.17-9.566-50.335-14.387-75.495c-0.174-0.856-0.365-1.468-0.58-1.828c-0.213-0.359-0.543-0.778-0.969-1.124
			c-0.627-0.51-1.332-1.249-1.934-2.237c-0.6-0.988-0.904-2.192-0.904-3.612c0-3.207,0-4.81,0-8.016
			c10.371,1.19,15.543,2.012,25.805,4.107c0,3.207,0,4.809,0,8.015c0,1.504-0.301,2.634-0.895,3.389
			c-0.596,0.757-1.201,1.303-1.789,1.587c-0.746,0.359-1.148,1.199-1.148,2.533c3.158,20.399,6.305,40.799,9.438,61.201
			c3.006-19.025,6.006-38.051,9.008-57.076c0-0.751-0.148-1.354-0.443-1.805c-0.295-0.451-0.654-0.937-1.076-1.338
			c-0.617-0.589-1.309-1.391-1.9-2.41c-0.59-1.021-0.887-2.283-0.887-3.786c0-3.207,0-4.809,0-8.015
			C349.603,98.441,354.716,99.914,364.816,103.32z"/>
		<path fill="#FFFFFF" d="M392.23,129.188c-0.361,0.212-0.545,0.528-0.545,0.944c0,8.317,0,12.477,0,20.793
			c0,0.585,0.184,1.105,0.545,1.56c0.361,0.456,0.783,0.792,1.266,1.012c6.078,2.775,9.09,4.252,15.041,7.382
			c0.393,0.207,0.809,0.572,1.24,1.094c0.43,0.521,0.648,1.117,0.648,1.784c0,4.008,0,6.013,0,10.02c0,1.171-0.59,1.438-1.771,0.816
			c-5.998-3.158-9.033-4.647-15.158-7.444c-1.205-0.55-1.811-0.276-1.811,0.808c0,9.369,0,14.053,0,23.422
			c0,0.501,0.203,1.009,0.605,1.523c0.402,0.514,0.846,0.884,1.328,1.104c3.857,1.764,5.773,2.682,9.582,4.589
			c0.715,0.357,1.328,0.203,1.664-0.414c0.168-0.307,0.357-0.737,0.596-1.201c0.236-0.462,0.572-0.833,1.006-1.11
			c0.434-0.276,0.969-0.438,1.6-0.483c0.629-0.045,1.375,0.16,2.24,0.622c2.92,1.561,4.373,2.361,7.262,4.009
			c0,7.014,0,10.522,0,17.537c0,0.919-0.428,1.424-1.283,1.525s-1.715-0.084-2.572-0.557c-3.047-1.679-4.58-2.495-7.662-4.079
			c-8.996-4.623-18.225-8.793-27.641-12.485c-2.945-1.155-4.424-1.713-7.391-2.788c0-3.005,0-4.508,0-7.514
			c0-1.835,0.246-3.144,0.74-3.925c0.494-0.779,1.191-1.2,1.977-1.339c0.953-0.168,1.477-0.904,1.477-2.075
			c0-20.291,0-40.58,0-60.871c0-1.335-0.533-2.524-1.6-3.484c-0.807-0.725-1.461-1.605-1.914-2.646
			c-0.453-1.042-0.68-2.396-0.68-4.067c0-3.156,0-4.734,0-7.89c14.877,5.38,29.32,11.949,43.162,19.609
			c0.938,0.519,1.736,1.344,2.396,2.469c0.66,1.125,0.99,2.024,0.99,2.691c0,6.613,0,9.92,0,16.533
			c-2.748-1.567-4.129-2.332-6.908-3.821c-1.57-0.842-2.83-1.918-3.777-3.243c-0.945-1.325-1.619-2.474-2.018-3.415
			c-0.541-1.279-1.383-2.206-2.496-2.758c-3.574-1.776-5.373-2.632-8.992-4.283C392.974,128.96,392.591,128.977,392.23,129.188z"/>
		<g>
			<path fill="#D8583A" d="M482.757,328.933v-31.855h16.525V245.68h-162.65l-4.676,13.416l-35.906-1.018l-4.287-12.398h-59.299
				v10.597l-21.055-0.597l-9.799-1.16l-3.072-8.84h-37.734l-16.611,47.472V245.68H32.994v32.1l12.197,2.36v65.729l-12.197,2.36
				v31.901l125.208,33.701c3.621-6.332,36.226-8.657,43.921-8.652c28.775,0.018,57.531,0.801,86.283,1.766
				c10.76-0.094,21.498,0.208,32.174,1.123c16.51,0.586,33.021,1.159,49.535,1.611c3.213,0.088,6.266,5.023,9.008,6.355
				l120.316-31.385v-55.719H482.757z M141.572,300.641l-0.139-3.563h1.387L141.572,300.641z"/>
			<path fill="#231F20" d="M378.704,420.279l-1.328-0.645c-1.664-0.808-3.076-2.171-4.441-3.489
				c-0.881-0.85-2.344-2.262-3.002-2.469c-16.577-0.454-32.871-1.021-49.494-1.609l-0.2-0.013
				c-8.83-0.757-18.029-1.125-28.125-1.125c-1.224,0-2.448,0.006-3.672,0.017h-0.085l-0.084-0.002
				c-25.684-0.862-56.003-1.746-86.152-1.764c-11.785,0-37.326,3.029-40.479,6.697l-1.498,2.62l-131.148-35.3v-38.268l12.197-2.36
				v-59.13l-12.197-2.36v-39.4h119.199v27.93l9.773-27.93h43.417l3.184,9.163l7.135,0.844l16.763,0.476V241.68h66.148l4.314,12.478
				l30.216,0.856l4.647-13.334h169.492v59.397h-16.525v23.855h16.682v62.809L378.704,420.279z M320.822,404.075
				c16.596,0.589,32.863,1.154,49.402,1.606c3.486,0.096,6.137,2.653,8.266,4.708c0.427,0.412,0.938,0.906,1.401,1.313
				l115.548-30.141v-48.629h-16.682v-39.855h16.525V249.68H339.474l-4.704,13.497l-41.597-1.179l-4.26-12.318h-52.449v10.711
				l-25.524-0.739l-12.285-1.454l-2.961-8.518h-32.052l-15.186,43.397h0.003l-8.267,23.617v-0.016l-1.8,5.14l-1.118-28.741h2.918
				V249.68H36.994v24.8l12.197,2.36v72.329l-12.197,2.36v25.536l119.976,32.293c2.791-2.122,8.479-4.376,21.068-6.185
				c9.58-1.376,19.839-1.994,24.063-1.994c30.255,0.018,60.624,0.902,86.354,1.766c1.22-0.011,2.439-0.017,3.658-0.017
				C302.401,402.93,311.792,403.305,320.822,404.075z"/>
		</g>
		<path fill="#FFFFFF" d="M42.994,356.48l12.197-2.36v-82.23l-12.197-2.36v-13.85h91.199v31.397h-17.627l-1.021-13.692H78.167
			v31.554h40.131v17.705H78.167v31.476l12.275,2.36v13.771H42.994V356.48z"/>
		<path fill="#FFFFFF" d="M124.857,356.48l8.184-1.181l34.859-99.62h23.527l34.623,99.62l8.184,1.181v13.771h-39.029V356.48
			l7.947-1.416l-5.035-15.737h-37.141l-5.037,15.737l7.947,1.416v13.771h-39.029V356.48z M166.406,322.409h26.279l-12.904-40.368
			h-0.471L166.406,322.409z"/>
		<path fill="#FFFFFF" d="M353.021,285.503l-0.473-0.079l-30.688,84.827h-15.424l-30.529-84.512l-0.473,0.079l2.203,50.282v18.02
			l12.275,2.36v13.771h-47.449V356.48l12.197-2.36v-82.23l-12.197-2.36v-13.85h12.197h29.979l29.195,84.433h0.473l29.428-84.433
			h42.336v13.85l-12.277,2.36v82.23l12.277,2.36v13.771h-47.449V356.48l12.195-2.36v-18.02L353.021,285.503z"/>
		<path fill="#231F20" d="M337.091,219.253c-0.898-2.437-3.992-8.105-13.285-8.105c-0.58,0-1.203,0.021-1.881,0.067
			c-0.602,0.042-1.225,0.112-1.857,0.204c0.283-3.351-0.479-6.589-2.275-9.35c-2.713-4.167-7.33-6.557-12.67-6.557
			c-7.969,0-16.316,5.587-19.85,13.285l-0.055,0.124c-0.795,1.795-1.277,3.617-1.465,5.412h-0.096l-3.445,6.449
			c-2.691-3.735-6.967-6.024-12.059-6.473l11.439-21.345h-33.609l-3.969,7.397h-24.428l-2.945,5.129
			c-0.07,0.125-1.551,2.713-5.834,10.654l-7.494,0.003l-2.92,5.252c0,0-0.697,1.248-1.877,3.471l-7.967,15.005h7.576
			c-1.504,2.809-2.869,5.365-4.01,7.501c-1.607,3.006-2.766,5.173-3.195,5.971c-4.832,8.815-3.373,14.838-1.301,18.339
			c2.514,4.241,7.045,6.713,12.469,6.818l-0.002,0.004h33.592l2.898-5.35c0.418-0.771,0.859-1.545,1.322-2.317
			c0.158,0.317,0.324,0.618,0.494,0.9c2.568,4.3,7.225,6.766,12.777,6.766c3.99,0,8.002-1.368,12.283-4.221
			c2.68,2.713,6.479,4.221,10.828,4.221c3.742,0,7.43-1.163,11.414-3.67c3.332,2.388,7.777,3.67,12.889,3.67
			c13.016,0,22.264-6.813,27.482-20.251l0.113-0.304c2.438-6.915,3.615-13.354,4.563-18.528c0.205-1.129,0.4-2.183,0.59-3.156
			C335.775,231.758,339.472,225.714,337.091,219.253z"/>
		<path fill="#FFFFFF" d="M472.757,319.891h-38.795v32.734h36.984l1.023-13.692h17.469v31.318h-90.648V356.48l12.195-2.36v-82.23
			l-12.195-2.36v-13.85h12.195h78.297v31.397h-17.627l-1.023-13.692h-36.67v28.8h38.795V319.891z"/>
		<path fill="#FFAD3B" d="M322.625,221.406c-5.809,0.398-8.863,3.849-10.701,8.499c-6.166,5.997-20.24,19.337-22.318,21.087
			c-1.717,1.454-3.303,2.905-3.83,2.312c-0.529-0.529,1.254-4.162,2.244-5.945c2.84-5.349,12.283-22.916,12.283-22.916l-10.5,0.066
			c0,0-2.117,3.963-4.918,9.198c-6.85,6.586-16.639,15.847-18.391,17.285c-1.652,1.454-3.236,2.905-3.766,2.312
			c-0.527-0.529,1.189-4.162,2.18-5.945c2.84-5.349,4.293-8.057,6.01-11.16c4.49-8.387,0.463-11.755-4.623-11.755
			c-3.17,0-12.746,2.84-25.953,20.142l22.189-41.407h-10.436l-17.109,31.892c-7.68,6.435-17.619,14.58-19.211,15.921
			c-1.717,1.454-3.303,2.905-3.83,2.312c-0.527-0.529,1.254-4.162,2.246-5.945c1.123-2.113,5.084-9.509,9.443-17.698h7.859
			c1.123-2.114,1.781-3.368,1.781-3.368l-7.857,0.066c6.076-11.491,8.584-15.784,8.584-15.784h-10.498c0,0-2.049,3.566-8.586,15.784
			h-7.596c0,0-0.66,1.188-1.783,3.302h7.66c-6.934,12.878-14,26.152-15.32,28.595c-3.764,6.869-1.783,10.04,2.576,10.04
			c2.773,0,6.34-1.586,12.084-7.001c2.496-2.37,9.393-8.509,16.174-14.532l-11.553,21.533h10.436
			c8.584-15.85,26.219-32.36,29.982-32.36c2.244,0,1.453,2.905-1.322,7.99c-2.971,5.548-4.951,9.379-7.658,14.331
			c-3.699,6.869-1.785,10.04,2.574,10.04c2.707,0,6.406-1.586,12.086-7.001c2.502-2.348,8.586-8.394,14.545-14.361
			c-2.766,5.157-5.17,9.632-6.096,11.323c-3.764,6.869-1.781,10.04,2.576,10.04c2.773,0,6.34-1.586,12.086-7.001
			c3.797-3.607,16.119-15.944,23.439-23.313c-0.453,2.502-0.82,5.05-1.252,7.463c-0.594,3.105-1.123,5.481-1.783,7.462
			c-8.453,2.246-16.246,3.765-17.037,8.322c-1.057,5.746,4.754,7.066,8.85,7.066c6.736,0,13.473-2.18,17.963-13.737
			c3.234-9.179,4.027-17.699,5.48-23.577C322.029,230.981,334.181,220.613,322.625,221.406z M301.556,262.284
			c-1.65,2.246-4.953,2.773-4.49,0.331c0.264-1.386,3.17-2.444,7-3.632C303.207,260.303,302.349,261.229,301.556,262.284z"/>
		<path fill="#FFAD3B" d="M299.597,218.641c4.467,0,9.74-3.588,11.719-8.056c1.977-4.467,0-8.129-4.543-8.129
			c-4.467,0-9.666,3.662-11.717,8.129C293.08,215.053,295.13,218.641,299.597,218.641z"/>
		<g>
			<path fill="#231F20" d="M383.111,440.036c-1.59-1.1-3.77-0.705-4.869,0.883l-31.271,45.145l6.193-37.356
				c0.281-1.693-0.707-3.341-2.334-3.889s-3.412,0.165-4.213,1.681l-21.105,39.934l-2.736-36.049
				c-0.146-1.928-1.832-3.372-3.756-3.225c-1.928,0.146-3.371,1.827-3.225,3.756l3.512,46.247l-17.672,13.5l-10.098-12.376
				l19.748-41.946c0.822-1.749,0.072-3.834-1.676-4.657c-1.75-0.823-3.836-0.074-4.658,1.676l-16.688,35.443l-9.469-33.752
				c-0.521-1.862-2.451-2.949-4.314-2.426c-1.861,0.522-2.947,2.453-2.426,4.314l11.396,40.626l-15.865,13.36l-15.865-13.36
				l11.396-40.626c0.521-1.861-0.564-3.793-2.426-4.314c-1.857-0.521-3.793,0.563-4.314,2.426l-9.469,33.752l-16.688-35.443
				c-0.824-1.75-2.91-2.5-4.658-1.676c-1.748,0.823-2.498,2.908-1.676,4.657l19.75,41.946l-10.1,12.376l-17.672-13.5l3.512-46.247
				c0.146-1.929-1.297-3.609-3.225-3.756c-1.92-0.15-3.609,1.298-3.756,3.225l-2.736,36.049l-21.105-39.934
				c-0.803-1.516-2.584-2.229-4.213-1.681c-1.627,0.548-2.615,2.195-2.334,3.889l6.133,36.986l-30.332-44.745
				c-1.086-1.6-3.264-2.017-4.861-0.932c-1.6,1.084-2.018,3.26-0.934,4.859l39.295,57.967c0.008,0.012,0.02,0.02,0.027,0.031
				c0.145,0.208,0.309,0.405,0.504,0.584l14.43,13.238l-3.191,13.676c-0.195,0.835-0.076,1.713,0.334,2.467l12.572,23.134
				l-3.59,55.389c-0.109,1.697,1.014,3.227,2.666,3.628c0.275,0.067,0.553,0.1,0.828,0.1c1.363,0,2.639-0.802,3.205-2.099
				l3.656-8.36l4.953,11.006c0.535,1.189,1.688,1.981,2.988,2.058c0.068,0.004,0.137,0.006,0.205,0.006
				c1.225,0,2.367-0.643,3.002-1.702l8.145-13.609l9.359,16.659c0.621,1.104,1.789,1.786,3.053,1.786
				c0.031,0,0.064-0.001,0.098-0.002c1.301-0.036,2.473-0.791,3.045-1.959l9.988-20.397l9.988,20.397
				c0.572,1.168,1.744,1.923,3.045,1.959c0.033,0.001,0.066,0.002,0.098,0.002c1.264,0,2.432-0.682,3.053-1.786l9.359-16.659
				l8.145,13.609c0.635,1.06,1.777,1.702,3.002,1.702c0.068,0,0.137-0.002,0.205-0.006c1.301-0.075,2.453-0.868,2.988-2.058
				l4.953-11.006l3.656,8.36c0.566,1.297,1.842,2.099,3.205,2.099c0.273,0,0.553-0.032,0.828-0.1
				c1.652-0.401,2.775-1.931,2.666-3.628l-3.59-55.389l12.572-23.134c0.41-0.754,0.529-1.632,0.334-2.467l-3.191-13.676
				l14.43-13.238c0.189-0.174,0.352-0.365,0.494-0.567c0.004-0.007,0.012-0.012,0.018-0.019l40.152-57.967
				C385.095,443.317,384.701,441.136,383.111,440.036z M207.509,508.336l-10.049-9.221l-5.021-30.282l16.182,30.617L207.509,508.336
				z M320.224,505.271l1.16,9.295l-11.236,15.527l-4.908-13.377L320.224,505.271z M311.787,554.881l-7.578,13.489l-4.941-11.303
				l8.842-12.215L311.787,554.881z M305.201,536.93l-8.893,12.289l-8.508-11.757l12.105-14.963L305.201,536.93z M291.994,555.197
				l-10.334,14.403l-8.445-14.111l10.023-12.391L291.994,555.197z M286.964,503.757l9.592,11.753l-13.008,16.078l-11.221-15.505
				L286.964,503.757z M278.988,537.225l-11.402,14.093l-11.402-14.092l11.402-15.756L278.988,537.225z M261.957,555.489
				l-8.445,14.111l-10.334-14.403l8.756-12.099L261.957,555.489z M248.207,503.757l14.637,12.326l-11.221,15.505l-13.008-16.078
				L248.207,503.757z M235.265,522.499l12.105,14.963l-8.508,11.758l-8.893-12.29L235.265,522.499z M235.904,557.067l-4.941,11.303
				l-7.578-13.489l3.678-10.028L235.904,557.067z M214.947,505.271l14.984,11.445l-4.908,13.377l-11.236-15.527L214.947,505.271z
				 M218.921,546.718l-8.725-16.053l1.609-6.895l10.309,14.246L218.921,546.718z M220.669,591.913l1.602-24.721l5.176,9.215
				L220.669,591.913z M231.335,606.649l-4.805-10.671l5.213-11.923l6.35,11.302L231.335,606.649z M235.257,576.018l5.393-12.333
				l8.943,12.462l-7.357,12.291L235.257,576.018z M254.242,609.809l-8.057-14.341l7.855-13.123l8.113,11.307L254.242,609.809z
				 M257.958,575.798l9.627-16.083l9.627,16.083l-9.627,13.416L257.958,575.798z M280.929,609.809l-7.912-16.157l8.113-11.307
				l7.855,13.123L280.929,609.809z M292.935,588.437l-7.357-12.291l8.943-12.461l5.391,12.333L292.935,588.437z M303.837,606.649
				l-6.76-11.292l6.35-11.302l5.213,11.924L303.837,606.649z M307.722,576.407l5.178-9.215l1.602,24.721L307.722,576.407z
				 M316.25,546.718l-3.193-8.701l10.309-14.246l1.609,6.895L316.25,546.718z M337.71,499.115l-10.049,9.221l-1.111-8.886
				l16.182-30.617L337.71,499.115z"/>
			<path fill="#231F20" d="M266.216,465.022c-33.422,0-65.002-2.438-88.926-6.864c-24.664-4.563-49.877-12.069-49.877-33.134
				c0-21.066,25.213-28.57,49.877-33.135c23.922-4.426,55.504-6.863,88.926-6.863c33.424,0,65.004,2.438,88.926,6.863
				c24.664,4.564,49.877,12.068,49.877,33.135c0,21.064-25.213,28.57-49.877,33.134
				C331.218,462.585,299.638,465.022,266.216,465.022z M192.082,425.024c20.756,3.145,46.951,4.87,74.135,4.87
				c27.186,0,53.379-1.726,74.135-4.87c-20.756-3.146-46.949-4.871-74.135-4.871S212.837,421.879,192.082,425.024z"/>
			<path fill="#231F20" d="M266.216,462.022c-33.246,0-64.633-2.42-88.379-6.814c-23.451-4.338-47.424-11.318-47.424-30.184
				c0-18.866,23.973-25.846,47.424-30.185c23.746-4.394,55.133-6.813,88.379-6.813s64.633,2.42,88.379,6.813
				c23.451,4.339,47.424,11.318,47.424,30.185c0,18.865-23.973,25.846-47.424,30.184
				C330.849,459.603,299.462,462.022,266.216,462.022z M175.556,425.024c3.746,0.846,8.211,1.714,13.52,2.566
				c21.285,3.42,48.682,5.304,77.141,5.304s55.855-1.884,77.141-5.304c5.309-0.853,9.773-1.721,13.52-2.566
				c-3.746-0.846-8.213-1.715-13.52-2.567c-21.285-3.42-48.682-5.304-77.141-5.304s-55.855,1.884-77.141,5.304
				C183.767,423.31,179.302,424.179,175.556,425.024z"/>
			<path fill="#D8583A" d="M266.216,456.025c-32.891,0-63.891-2.384-87.287-6.714c-29.406-5.441-42.52-12.932-42.52-24.287
				c0-11.356,13.113-18.847,42.52-24.287c23.396-4.33,54.396-6.715,87.287-6.715s63.891,2.385,87.287,6.715
				c29.406,5.44,42.52,12.931,42.52,24.287c0,11.355-13.113,18.846-42.52,24.287C330.107,453.642,299.107,456.025,266.216,456.025z
				 M156.078,425.024c4.059,2.082,13.041,5.434,32.047,8.487c21.592,3.47,49.324,5.38,78.092,5.38s56.5-1.91,78.092-5.38
				c19.006-3.054,27.988-6.405,32.047-8.487c-4.059-2.083-13.041-5.434-32.047-8.488c-21.592-3.469-49.324-5.379-78.092-5.379
				s-56.5,1.91-78.092,5.379C169.119,419.591,160.136,422.941,156.078,425.024z"/>
			<path fill="#231F20" d="M365.814,428.938c0,0,15.553-3.914,20.932-10.92c-12.627,5.611-27.824,7.006-27.824,7.006
				L365.814,428.938z"/>
			<path fill="#231F20" d="M167.353,428.938c0,0-15.553-3.914-20.932-10.92c12.627,5.611,27.824,7.006,27.824,7.006L167.353,428.938
				z"/>
		</g>
		<path fill="none" stroke="#231F20" stroke-width="10" stroke-miterlimit="10" d="M178.439,442.913"/>
		<polygon fill="#FFFFFF" points="88.593,363.059 140.576,394.022 85.162,370.251 		"/>
		<polygon fill="#FFFFFF" points="124.857,370.251 144.666,385.026 130.414,366.657 		"/>
		<polygon fill="#FFFFFF" points="482.968,366.657 411.003,394.022 489.439,370.251 		"/>
		<polygon fill="#FFFFFF" points="398.791,370.251 376.621,385.026 409.404,370.251 406.605,366.657 		"/>
		<polygon fill="#FFFFFF" points="340.238,366.657 332.64,380.34 348.234,366.657 		"/>
		<polyline fill="#FFFFFF" points="195.205,370.251 203.902,380.34 199.552,366.657 195.205,368.256 		"/>
		<polygon fill="#FFFFFF" points="232.662,363.059 237.55,378.54 227.058,366.657 		"/>
		<polygon fill="#FFFFFF" points="242.464,370.251 249.414,380.34 249.414,366.657 		"/>
		<polygon fill="#FFFFFF" points="305.138,366.657 299.601,378.54 310.093,366.657 		"/>
		<polygon fill="#FFFFFF" points="48.208,366.657 68.283,380.34 42.994,370.251 		"/>
	</g>
	<path fill="#231F20" d="M145.661,406.215C99.436,393.871,33.227,375.86,26.917,373.446c-5.512-2.106-12.188-11.166-18.323-24.857
		c-1.842-6.305,0.96-66.673,1.883-86.545c0.415-8.945,0.632-13.675,0.631-14.98c0.22-4.271,17.396-55.38,72.181-103.807
		c9.549-8.443,19.648-15.445,29.415-22.216c3.482-2.414,7.081-4.908,10.574-7.415c12.214-7.313,24.778-13.281,37.178-18.181v-8.564
		c-13.786,5.269-27.821,11.806-41.434,19.969l-0.275,0.181c-3.482,2.5-7.101,5.009-10.601,7.435
		c-9.958,6.903-20.255,14.042-30.156,22.797C23.501,185.427,3.108,239.635,3.108,247.027c0,1.219-0.275,7.144-0.623,14.646
		c-2.883,62.104-3.206,85.678-1.235,90.09c5.029,11.246,13.069,25.433,22.811,29.156c6.198,2.371,69.525,19.625,115.855,32.021
		C140.614,410.015,142.661,407.301,145.661,406.215z"/>
	<path fill="#231F20" d="M535.332,249.424c-1.137-8.611-11.061-35.068-40.487-73.565c-16.739-21.895-60.115-64.025-105.247-83.869
		c-9.159-4.028-18.411-7.446-27.497-10.351c0.63,0.688,1.19,1.472,1.648,2.479c0.963,2.119,0.788,4.58-0.349,6.366
		c7.62,2.55,15.331,5.466,22.977,8.829c43.759,19.24,85.856,60.142,102.112,81.404c26.343,34.463,37.703,60.597,38.912,69.757
		c1.238,9.329,0.674,93.985-0.023,103.004c-0.547,7.088-5.979,15.012-14.532,21.197c-5.521,3.994-34.942,11.267-50.749,15.174
		c-5.684,1.404-10.174,2.514-12.614,3.209l-60.1,15.575c2.247,1.583,3.769,4.358,3.958,7.238l58.239-15.094
		c2.397-0.682,6.827-1.776,12.437-3.163c24.629-6.088,47.256-11.928,53.518-16.458c5.01-3.623,16.775-13.513,17.82-27.063
		C536.09,344.569,536.66,259.429,535.332,249.424z"/>
</g>
</svg>
